<svg xmlns="http://www.w3.org/2000/svg" viewBox="0 0 640 480">
  <path fill="#006c35" d="M0 0h640v480H0z"/>
  <g fill="#fff">
    <!-- Arabic inscription (shahada) -->
    <path d="M176.7 183.4c-.6-7.3 3-11.8 10.4-13.6a31 31 0 0 1 7.9-.5c16.8 1.3 33.4 3.8 50.2 5.2 4.3.4 8.7.4 13 0 12.2-1 24.4-2.4 36.6-3.4 7.5-.6 15-1 22.6-1 2.8 0 5.5.5 8.2 1.2 3.8 1 6.2 3.7 7.5 7.3 1.3 3.7 1.1 7.3-1 10.7-1.8 3-4.5 4.8-7.8 5.8-4.3 1.3-8.8 1.3-13.3 1.3-17.4-.2-34.8-1.4-52.2-2.2-7.5-.4-15-.7-22.6-1-11.3-.3-22.6-.5-33.9-.5-3.8 0-7.5.2-11.3.5-5.3.5-9.8-1.2-13-5.5-1.3-1.6-1.8-3.4-2-5.3zm-33.5 30.8c1.3-6.3 5.5-9.7 11.8-10.5 4.5-.5 9-.5 13.5-.3 13.2.8 26.4 2 39.6 2.8 10.5.6 21 1 31.5 1.3 13.2.3 26.4.3 39.6.2 10.5-.1 21-.5 31.5-1 7.5-.3 15-.8 22.6-1.3 2.8-.2 5.5-.5 8.2-.5 6.8 0 11.3 3.4 12.8 10 1 4.3-.3 8-3.3 11.2-2.5 2.6-5.8 3.7-9.3 4-6.3.6-12.5.8-18.8 1-11.3.3-22.6.5-33.9.5-9 0-18-.3-27.1-.5-11.3-.3-22.6-.8-33.9-1.3-9-.4-18-.8-27.1-1.3-9-.5-18-1-27.1-1.5-4.5-.3-9-.5-13.5-.5-7.5 0-12.5-3.2-14.8-10.3-.8-2.5-.8-5-.3-7.5.3-1.5 1-3 1.8-4.5zm-33.4 30.7c1.5-6.5 6-10 12.8-10.7 4.5-.5 9-.5 13.5-.3 13.2.8 26.4 2 39.6 2.8 10.5.6 21 1 31.5 1.3 13.2.3 26.4.3 39.6.2 10.5-.1 21-.5 31.5-1 7.5-.3 15-.8 22.6-1.3 2.8-.2 5.5-.5 8.2-.5 6.8 0 11.3 3.4 12.8 10 1 4.3-.3 8-3.3 11.2-2.5 2.6-5.8 3.7-9.3 4-6.3.6-12.5.8-18.8 1-11.3.3-22.6.5-33.9.5-9 0-18-.3-27.1-.5-11.3-.3-22.6-.8-33.9-1.3-9-.4-18-.8-27.1-1.3-9-.5-18-1-27.1-1.5-4.5-.3-9-.5-13.5-.5-7.5 0-12.5-3.2-14.8-10.3-.8-2.5-.8-5-.3-7.5.3-1.5 1-3 1.8-4.5zm-33.4 30.7c1.5-6.5 6-10 12.8-10.7 4.5-.5 9-.5 13.5-.3 13.2.8 26.4 2 39.6 2.8 10.5.6 21 1 31.5 1.3 13.2.3 26.4.3 39.6.2 10.5-.1 21-.5 31.5-1 7.5-.3 15-.8 22.6-1.3 2.8-.2 5.5-.5 8.2-.5 6.8 0 11.3 3.4 12.8 10 1 4.3-.3 8-3.3 11.2-2.5 2.6-5.8 3.7-9.3 4-6.3.6-12.5.8-18.8 1-11.3.3-22.6.5-33.9.5-9 0-18-.3-27.1-.5-11.3-.3-22.6-.8-33.9-1.3-9-.4-18-.8-27.1-1.3-9-.5-18-1-27.1-1.5-4.5-.3-9-.5-13.5-.5-7.5 0-12.5-3.2-14.8-10.3-.8-2.5-.8-5-.3-7.5.3-1.5 1-3 1.8-4.5z"/>
    <!-- Sword -->
    <path d="M424 306V186" stroke="#fff" stroke-width="10"/>
    <path d="M399 226h50" stroke="#fff" stroke-width="10"/>
    <path d="M384 246h80" stroke="#fff" stroke-width="10"/>
    <path d="M424 196c0 0 3 20 3 30 0 10-3 30-3 30" stroke="#fff" stroke-width="10"/>
  </g>
</svg>